# xmcd
#
# Track frame offsets:
#	150
#	16335
#	32785
#	49505
#	70588
#	86805
#	102530
#	126995
#	146921
#	160671
#	180988
#	196582
#	214141
#	238463
#	257595
#	271375
#	284224
#	302083
#
# Disc length: 4260
#
# Revision: 2
# Processed by: cddbd v1.5.1PL0 Copyright (c) Steve Scherf et al.
# Submitted via: EasyCDDAExtractor 5.0.7
# Normalized: r1:TDELIM( - )
#
DISCID=0c10a212
DTITLE=FESTIVALBAR 2003 - ROSSA02
DYEAR=2003
DGENRE=BLUES
TTITLE0=CARMEN CONSOLI - FIORI D'ARANCIO
TTITLE1=MELANIE C - ON THE HORIZON
TTITLE2=TIROMANCINO - NESSUNA CERTEZZA
TTITLE3=FROU FROU - GOOD TO BE IN LOVE
TTITLE4=NEFFA - PRIMA DI ANDARE VIA
TTITLE5=IRENE NORRIS - CALENDAR
TTITLE6=RINGO STARR - NEVER WITHOUT YOU
TTITLE7=NICCOLO' FABI - IL NEGOZIO DI ANTIQUARIATO
TTITLE8=JUNIOR SENIOR - MOVE YOUR FEET
TTITLE9=NEGRITA - MAGNOLIA
TTITLE10=NU - ANY OTHER GIRL
TTITLE11=AMALIA GRE' - IO CAMMINO DI NOTTE DA SOLA
TTITLE12=STYLOPHONIC - SOULREPLY
TTITLE13=SAFEWAY - FALLIN'
TTITLE14=YU YU - RELAX
TTITLE15=ATHLETE - EL SALVADOR
TTITLE16=TURIN BRAKES - PAIN KILLER
TTITLE17=ELISA - ALMENO TU NELL'UNIVERSO
EXTD=
EXTT0=
EXTT1=
EXTT2=
EXTT3=
EXTT4=
EXTT5=
EXTT6=
EXTT7=
EXTT8=
EXTT9=
EXTT10=
EXTT11=
EXTT12=
EXTT13=
EXTT14=
EXTT15=
EXTT16=
EXTT17=
PLAYORDER=
